<?xml version="1.0" standalone="no"?><!DOCTYPE svg PUBLIC "-//W3C//DTD SVG 1.1//EN" "http://www.w3.org/Graphics/SVG/1.1/DTD/svg11.dtd"><svg t="1610635520575" class="icon" viewBox="0 0 1280 1024" version="1.1" xmlns="http://www.w3.org/2000/svg" p-id="14397" data-spm-anchor-id="a313x.7781069.0.i3" xmlns:xlink="http://www.w3.org/1999/xlink" width="40" height="32"><defs><style type="text/css"></style></defs><path d="M633 165c-183.9 0-333 149.1-333 333s149.1 333 333 333 333-149.1 333-333-149.1-333-333-333z m0 598c-146.4 0-265-118.6-265-265s118.6-265 265-265 265 118.6 265 265-118.6 265-265 265z" p-id="14398" fill="#2c2c2c" data-spm-anchor-id="a313x.7781069.0.i4" class="selected"></path><path d="M633.2 637.7l48.1-48.1-0.2-0.2 107.2-107.2c13.3-13.3 13.3-34.8 0-48.1-13.3-13.3-34.8-13.3-48.1 0L633 541.4 525.9 434.2c-13.3-13.3-34.8-13.3-48.1 0-13.3 13.3-13.3 34.8 0 48.1L585 589.5l-0.2 0.2 48.1 48.1 0.2-0.2 0.1 0.1z" fill="#f4ea2a" p-id="14399" data-spm-anchor-id="a313x.7781069.0.i2" class=""></path></svg>